<svg width="55" height="37" viewBox="0 0 55 37" fill="none" xmlns="http://www.w3.org/2000/svg">
<path d="M7.072 19.88C7.072 20.984 7 21.984 6.856 22.88C6.728 23.776 6.472 24.584 6.088 25.304C5.704 26.024 5.144 26.68 4.408 27.272C3.672 27.88 2.704 28.448 1.504 28.976C1.296 28.832 1.144 28.648 1.048 28.424C0.952 28.216 0.888 27.992 0.856 27.752C1.448 27.304 1.936 26.824 2.32 26.312C2.704 25.816 2.992 25.208 3.184 24.488C3.392 23.784 3.496 22.896 3.496 21.824V10.592C3.496 9.936 3.448 9.448 3.352 9.128C3.272 8.792 3.112 8.56 2.872 8.432C2.648 8.288 2.32 8.2 1.888 8.168C1.824 7.992 1.776 7.768 1.744 7.496C1.728 7.224 1.72 6.96 1.72 6.704C2.008 6.72 2.352 6.736 2.752 6.752C3.152 6.768 3.576 6.776 4.024 6.776C4.472 6.776 4.888 6.776 5.272 6.776C5.88 6.776 6.52 6.776 7.192 6.776C7.88 6.76 8.432 6.736 8.848 6.704C8.848 6.992 8.832 7.264 8.8 7.52C8.784 7.76 8.744 7.976 8.68 8.168C8.232 8.2 7.888 8.296 7.648 8.456C7.424 8.6 7.272 8.84 7.192 9.176C7.112 9.512 7.072 9.984 7.072 10.592V19.88Z" fill="white"/>
<path d="M15.52 23.144C14.384 23.144 13.496 22.824 12.856 22.184C12.216 21.528 11.896 20.376 11.896 18.728V15.896C11.896 15.208 11.816 14.728 11.656 14.456C11.496 14.168 11.064 14 10.36 13.952C10.36 13.712 10.376 13.48 10.408 13.256C10.456 13.016 10.528 12.792 10.624 12.584C11.472 12.584 12.256 12.504 12.976 12.344C13.712 12.168 14.264 11.984 14.632 11.792C14.856 11.872 15.024 12.016 15.136 12.224C15.264 12.416 15.328 12.704 15.328 13.088V18.152C15.328 19.224 15.44 19.992 15.664 20.456C15.904 20.92 16.288 21.152 16.816 21.152C17.456 21.152 18.008 20.84 18.472 20.216C18.936 19.576 19.168 18.608 19.168 17.312V15.776C19.168 15.088 19.064 14.608 18.856 14.336C18.664 14.048 18.192 13.88 17.44 13.832C17.44 13.592 17.448 13.36 17.464 13.136C17.496 12.896 17.568 12.672 17.68 12.464C18.592 12.464 19.432 12.4 20.2 12.272C20.968 12.128 21.536 11.968 21.904 11.792C22.128 11.872 22.296 12.016 22.408 12.224C22.536 12.416 22.6 12.704 22.6 13.088V19.784L19.624 20.648C19.528 20.936 19.4 21.192 19.24 21.416C19.096 21.64 18.936 21.84 18.76 22.016C18.392 22.352 17.944 22.624 17.416 22.832C16.888 23.04 16.256 23.144 15.52 23.144ZM20.224 23.216C19.968 23.104 19.776 22.952 19.648 22.76C19.536 22.568 19.48 22.264 19.48 21.848C19.48 21.592 19.504 21.296 19.552 20.96C19.6 20.608 19.672 20.248 19.768 19.88L22.6 18.992C22.6 19.488 22.632 19.88 22.696 20.168C22.76 20.44 22.888 20.632 23.08 20.744C23.288 20.856 23.6 20.912 24.016 20.912C24.048 21.168 24.048 21.432 24.016 21.704C23.984 21.96 23.912 22.2 23.8 22.424C23.224 22.44 22.616 22.52 21.976 22.664C21.336 22.792 20.752 22.976 20.224 23.216Z" fill="white"/>
<path d="M33.736 23.216C33.464 23.104 33.272 22.944 33.16 22.736C33.048 22.512 32.992 22.208 32.992 21.824C32.992 21.632 33.008 21.408 33.04 21.152C33.072 20.88 33.128 20.624 33.208 20.384L33.28 20.312C33.168 20.728 33.008 21.112 32.8 21.464C32.592 21.8 32.344 22.08 32.056 22.304C31.736 22.592 31.344 22.808 30.88 22.952C30.432 23.096 29.896 23.168 29.272 23.168C28.2 23.168 27.368 22.936 26.776 22.472C26.184 22.008 25.888 21.344 25.888 20.48C25.888 19.872 26.024 19.352 26.296 18.92C26.584 18.472 26.968 18.096 27.448 17.792C27.928 17.488 28.464 17.24 29.056 17.048C29.648 16.856 30.248 16.704 30.856 16.592C31.48 16.48 32.064 16.384 32.608 16.304C32.608 15.84 32.592 15.456 32.56 15.152C32.544 14.832 32.496 14.568 32.416 14.36C32.352 14.136 32.24 13.944 32.08 13.784C31.904 13.56 31.696 13.408 31.456 13.328C31.232 13.232 30.992 13.184 30.736 13.184C30.288 13.184 29.928 13.32 29.656 13.592C29.4 13.848 29.208 14.184 29.08 14.6C28.952 15.016 28.872 15.44 28.84 15.872C28.456 15.872 28.096 15.856 27.76 15.824C27.424 15.792 27.128 15.728 26.872 15.632C26.904 15.2 26.912 14.736 26.896 14.24C26.88 13.744 26.824 13.248 26.728 12.752C27.4 12.448 28.168 12.208 29.032 12.032C29.912 11.856 30.736 11.768 31.504 11.768C32.416 11.768 33.152 11.88 33.712 12.104C34.272 12.312 34.696 12.56 34.984 12.848C35.32 13.2 35.576 13.68 35.752 14.288C35.944 14.88 36.04 15.736 36.04 16.856V18.944C36.04 19.456 36.072 19.856 36.136 20.144C36.2 20.416 36.328 20.608 36.52 20.72C36.728 20.832 37.04 20.896 37.456 20.912C37.488 21.168 37.488 21.432 37.456 21.704C37.424 21.96 37.352 22.2 37.24 22.424C36.664 22.44 36.064 22.52 35.44 22.664C34.832 22.792 34.264 22.976 33.736 23.216ZM30.472 21.176C30.792 21.176 31.12 21.072 31.456 20.864C31.792 20.64 32.064 20.312 32.272 19.88C32.496 19.448 32.608 18.896 32.608 18.224V17.576C32.144 17.656 31.704 17.752 31.288 17.864C30.888 17.976 30.536 18.12 30.232 18.296C29.944 18.456 29.72 18.664 29.56 18.92C29.4 19.16 29.32 19.464 29.32 19.832C29.32 20.312 29.432 20.656 29.656 20.864C29.896 21.072 30.168 21.176 30.472 21.176Z" fill="white"/>
<path d="M41.592 17.984V15.896C41.592 15.432 41.552 15.072 41.472 14.816C41.408 14.544 41.248 14.344 40.992 14.216C40.752 14.072 40.368 13.984 39.84 13.952C39.84 13.712 39.856 13.48 39.888 13.256C39.936 13.016 40.016 12.792 40.128 12.584C40.976 12.584 41.792 12.504 42.576 12.344C43.376 12.168 43.96 11.984 44.328 11.792C44.552 11.872 44.72 12.016 44.832 12.224C44.96 12.416 45.024 12.704 45.024 13.088L41.592 17.984ZM52.632 19.52C52.632 20.32 52.72 20.872 52.896 21.176C53.088 21.464 53.4 21.608 53.832 21.608C53.912 21.8 53.96 22.016 53.976 22.256C54.008 22.48 54.024 22.752 54.024 23.072C53.672 23.056 53.216 23.04 52.656 23.024C52.112 23.008 51.576 23 51.048 23C50.696 23 50.296 23 49.848 23C49.416 23.016 49 23.024 48.6 23.024C48.2 23.04 47.88 23.056 47.64 23.072C47.64 22.784 47.648 22.52 47.664 22.28C47.68 22.04 47.728 21.816 47.808 21.608C48.256 21.608 48.6 21.448 48.84 21.128C49.08 20.808 49.2 20.224 49.2 19.376V16.76C49.2 15.752 49.04 15.056 48.72 14.672C48.4 14.272 47.944 14.072 47.352 14.072C46.968 14.072 46.592 14.224 46.224 14.528C45.872 14.816 45.584 15.248 45.36 15.824C45.136 16.384 45.024 17.088 45.024 17.936V19.52C45.024 20.336 45.128 20.888 45.336 21.176C45.56 21.464 45.912 21.608 46.392 21.608C46.488 21.832 46.544 22.056 46.56 22.28C46.576 22.504 46.584 22.768 46.584 23.072C46.36 23.056 46.056 23.04 45.672 23.024C45.288 23.024 44.888 23.016 44.472 23C44.072 23 43.688 23 43.32 23C42.952 23 42.544 23 42.096 23C41.648 23.016 41.216 23.024 40.8 23.024C40.384 23.04 40.056 23.056 39.816 23.072C39.816 22.768 39.832 22.488 39.864 22.232C39.896 21.976 39.944 21.768 40.008 21.608C40.632 21.608 41.048 21.464 41.256 21.176C41.48 20.872 41.592 20.32 41.592 19.52V15.896L45.024 13.088C45.024 13.28 45 13.504 44.952 13.76C44.92 14 44.864 14.256 44.784 14.528C44.88 14.336 44.976 14.144 45.072 13.952C45.168 13.76 45.296 13.576 45.456 13.4C45.776 13.032 46.224 12.696 46.8 12.392C47.376 12.072 48.04 11.912 48.792 11.912C49.464 11.912 50.088 12.04 50.664 12.296C51.256 12.552 51.728 12.968 52.08 13.544C52.448 14.12 52.632 14.88 52.632 15.824V19.52Z" fill="white"/>
</svg>
