<svg width="161" height="23" viewBox="0 0 161 23" fill="none" xmlns="http://www.w3.org/2000/svg">
<path d="M7.072 13.88C7.072 14.984 7 15.984 6.856 16.88C6.728 17.776 6.472 18.584 6.088 19.304C5.704 20.024 5.144 20.68 4.408 21.272C3.672 21.88 2.704 22.448 1.504 22.976C1.296 22.832 1.144 22.648 1.048 22.424C0.952 22.216 0.888 21.992 0.856 21.752C1.448 21.304 1.936 20.824 2.32 20.312C2.704 19.816 2.992 19.208 3.184 18.488C3.392 17.784 3.496 16.896 3.496 15.824V4.592C3.496 3.936 3.448 3.448 3.352 3.128C3.272 2.792 3.112 2.56 2.872 2.432C2.648 2.288 2.32 2.2 1.888 2.168C1.824 1.992 1.776 1.768 1.744 1.496C1.728 1.224 1.72 0.959999 1.72 0.704C2.008 0.719999 2.352 0.735999 2.752 0.751999C3.152 0.767999 3.576 0.775999 4.024 0.775999C4.472 0.775999 4.888 0.775999 5.272 0.775999C5.88 0.775999 6.52 0.775999 7.192 0.775999C7.88 0.759999 8.432 0.735999 8.848 0.704C8.848 0.992 8.832 1.264 8.8 1.52C8.784 1.76 8.744 1.976 8.68 2.168C8.232 2.2 7.888 2.296 7.648 2.456C7.424 2.6 7.272 2.84 7.192 3.176C7.112 3.512 7.072 3.984 7.072 4.592V13.88ZM15.2153 17.144C14.0793 17.144 13.1913 16.824 12.5513 16.184C11.9113 15.528 11.5913 14.376 11.5913 12.728V9.896C11.5913 9.208 11.5113 8.728 11.3513 8.456C11.1913 8.168 10.7593 8 10.0553 7.952C10.0553 7.712 10.0713 7.48 10.1033 7.256C10.1513 7.016 10.2233 6.792 10.3193 6.584C11.1673 6.584 11.9513 6.504 12.6713 6.344C13.4073 6.168 13.9593 5.984 14.3273 5.792C14.5513 5.872 14.7193 6.016 14.8313 6.224C14.9593 6.416 15.0233 6.704 15.0233 7.088V12.152C15.0233 13.224 15.1353 13.992 15.3593 14.456C15.5993 14.92 15.9833 15.152 16.5113 15.152C17.1513 15.152 17.7033 14.84 18.1673 14.216C18.6313 13.576 18.8633 12.608 18.8633 11.312V9.776C18.8633 9.088 18.7593 8.608 18.5513 8.336C18.3593 8.048 17.8873 7.88 17.1353 7.832C17.1353 7.592 17.1433 7.36 17.1593 7.136C17.1913 6.896 17.2633 6.672 17.3753 6.464C18.2873 6.464 19.1273 6.4 19.8953 6.272C20.6633 6.128 21.2313 5.968 21.5993 5.792C21.8233 5.872 21.9913 6.016 22.1033 6.224C22.2313 6.416 22.2953 6.704 22.2953 7.088V13.784L19.3193 14.648C19.2233 14.936 19.0953 15.192 18.9353 15.416C18.7913 15.64 18.6313 15.84 18.4553 16.016C18.0873 16.352 17.6393 16.624 17.1113 16.832C16.5833 17.04 15.9513 17.144 15.2153 17.144ZM19.9193 17.216C19.6633 17.104 19.4713 16.952 19.3433 16.76C19.2313 16.568 19.1753 16.264 19.1753 15.848C19.1753 15.592 19.1993 15.296 19.2473 14.96C19.2953 14.608 19.3673 14.248 19.4633 13.88L22.2953 12.992C22.2953 13.488 22.3273 13.88 22.3913 14.168C22.4553 14.44 22.5833 14.632 22.7753 14.744C22.9833 14.856 23.2953 14.912 23.7113 14.912C23.7433 15.168 23.7433 15.432 23.7113 15.704C23.6793 15.96 23.6073 16.2 23.4953 16.424C22.9193 16.44 22.3113 16.52 21.6713 16.664C21.0313 16.792 20.4473 16.976 19.9193 17.216ZM33.0798 17.216C32.8078 17.104 32.6158 16.944 32.5038 16.736C32.3918 16.512 32.3358 16.208 32.3358 15.824C32.3358 15.632 32.3518 15.408 32.3838 15.152C32.4158 14.88 32.4718 14.624 32.5518 14.384L32.6238 14.312C32.5118 14.728 32.3518 15.112 32.1438 15.464C31.9358 15.8 31.6878 16.08 31.3997 16.304C31.0798 16.592 30.6878 16.808 30.2238 16.952C29.7758 17.096 29.2398 17.168 28.6158 17.168C27.5438 17.168 26.7118 16.936 26.1198 16.472C25.5278 16.008 25.2318 15.344 25.2318 14.48C25.2318 13.872 25.3678 13.352 25.6398 12.92C25.9278 12.472 26.3118 12.096 26.7918 11.792C27.2718 11.488 27.8078 11.24 28.3998 11.048C28.9918 10.856 29.5918 10.704 30.1998 10.592C30.8238 10.48 31.4078 10.384 31.9518 10.304C31.9518 9.84 31.9358 9.456 31.9038 9.152C31.8878 8.832 31.8398 8.568 31.7598 8.36C31.6958 8.136 31.5838 7.944 31.4238 7.784C31.2478 7.56 31.0398 7.408 30.7998 7.328C30.5758 7.232 30.3358 7.184 30.0798 7.184C29.6318 7.184 29.2718 7.32 28.9998 7.592C28.7438 7.848 28.5518 8.184 28.4238 8.6C28.2958 9.016 28.2158 9.44 28.1838 9.872C27.7998 9.872 27.4398 9.856 27.1038 9.824C26.7678 9.792 26.4718 9.728 26.2158 9.632C26.2478 9.2 26.2558 8.736 26.2398 8.24C26.2238 7.744 26.1678 7.248 26.0718 6.752C26.7438 6.448 27.5118 6.208 28.3758 6.032C29.2558 5.856 30.0798 5.768 30.8478 5.768C31.7598 5.768 32.4958 5.88 33.0558 6.104C33.6158 6.312 34.0398 6.56 34.3278 6.848C34.6638 7.2 34.9198 7.68 35.0958 8.288C35.2878 8.88 35.3838 9.736 35.3838 10.856V12.944C35.3838 13.456 35.4158 13.856 35.4798 14.144C35.5438 14.416 35.6718 14.608 35.8638 14.72C36.0718 14.832 36.3838 14.896 36.7998 14.912C36.8318 15.168 36.8318 15.432 36.7998 15.704C36.7678 15.96 36.6958 16.2 36.5838 16.424C36.0078 16.44 35.4078 16.52 34.7838 16.664C34.1758 16.792 33.6078 16.976 33.0798 17.216ZM29.8158 15.176C30.1358 15.176 30.4638 15.072 30.7998 14.864C31.1358 14.64 31.4078 14.312 31.6158 13.88C31.8398 13.448 31.9518 12.896 31.9518 12.224V11.576C31.4878 11.656 31.0478 11.752 30.6318 11.864C30.2318 11.976 29.8798 12.12 29.5758 12.296C29.2878 12.456 29.0638 12.664 28.9038 12.92C28.7438 13.16 28.6638 13.464 28.6638 13.832C28.6638 14.312 28.7758 14.656 28.9998 14.864C29.2398 15.072 29.5118 15.176 29.8158 15.176ZM40.0373 11.984V9.896C40.0373 9.432 39.9973 9.072 39.9173 8.816C39.8533 8.544 39.6933 8.344 39.4373 8.216C39.1973 8.072 38.8133 7.984 38.2853 7.952C38.2853 7.712 38.3013 7.48 38.3333 7.256C38.3813 7.016 38.4613 6.792 38.5733 6.584C39.4213 6.584 40.2373 6.504 41.0213 6.344C41.8213 6.168 42.4053 5.984 42.7733 5.792C42.9973 5.872 43.1653 6.016 43.2773 6.224C43.4053 6.416 43.4693 6.704 43.4693 7.088L40.0373 11.984ZM51.0773 13.52C51.0773 14.32 51.1653 14.872 51.3413 15.176C51.5333 15.464 51.8453 15.608 52.2773 15.608C52.3573 15.8 52.4053 16.016 52.4213 16.256C52.4533 16.48 52.4693 16.752 52.4693 17.072C52.1173 17.056 51.6613 17.04 51.1013 17.024C50.5573 17.008 50.0213 17 49.4933 17C49.1413 17 48.7413 17 48.2933 17C47.8613 17.016 47.4453 17.024 47.0453 17.024C46.6453 17.04 46.3253 17.056 46.0853 17.072C46.0853 16.784 46.0933 16.52 46.1093 16.28C46.1253 16.04 46.1733 15.816 46.2533 15.608C46.7013 15.608 47.0453 15.448 47.2853 15.128C47.5253 14.808 47.6453 14.224 47.6453 13.376V10.76C47.6453 9.752 47.4853 9.056 47.1653 8.672C46.8453 8.272 46.3893 8.072 45.7973 8.072C45.4133 8.072 45.0373 8.224 44.6693 8.528C44.3173 8.816 44.0293 9.248 43.8053 9.824C43.5813 10.384 43.4693 11.088 43.4693 11.936V13.52C43.4693 14.336 43.5733 14.888 43.7813 15.176C44.0053 15.464 44.3573 15.608 44.8373 15.608C44.9333 15.832 44.9893 16.056 45.0053 16.28C45.0213 16.504 45.0293 16.768 45.0293 17.072C44.8053 17.056 44.5013 17.04 44.1173 17.024C43.7333 17.024 43.3333 17.016 42.9173 17C42.5173 17 42.1333 17 41.7653 17C41.3973 17 40.9893 17 40.5413 17C40.0933 17.016 39.6613 17.024 39.2453 17.024C38.8293 17.04 38.5013 17.056 38.2613 17.072C38.2613 16.768 38.2773 16.488 38.3093 16.232C38.3413 15.976 38.3893 15.768 38.4533 15.608C39.0773 15.608 39.4933 15.464 39.7013 15.176C39.9253 14.872 40.0373 14.32 40.0373 13.52V9.896L43.4693 7.088C43.4693 7.28 43.4453 7.504 43.3973 7.76C43.3653 8 43.3093 8.256 43.2293 8.528C43.3253 8.336 43.4213 8.144 43.5173 7.952C43.6133 7.76 43.7413 7.576 43.9013 7.4C44.2213 7.032 44.6693 6.696 45.2453 6.392C45.8213 6.072 46.4853 5.912 47.2373 5.912C47.9093 5.912 48.5333 6.04 49.1093 6.296C49.7013 6.552 50.1733 6.968 50.5253 7.544C50.8933 8.12 51.0773 8.88 51.0773 9.824V13.52ZM66.8783 17.216C65.2943 17.216 63.9023 16.864 62.7023 16.16C61.5183 15.44 60.5903 14.448 59.9183 13.184C59.2463 11.92 58.9103 10.456 58.9103 8.792C58.9103 7.432 59.1343 6.24 59.5823 5.216C60.0303 4.176 60.6383 3.312 61.4063 2.624C62.1743 1.936 63.0463 1.424 64.0223 1.088C64.9983 0.735999 66.0063 0.559999 67.0463 0.559999C67.9903 0.559999 68.8943 0.671999 69.7583 0.896C70.6383 1.104 71.5023 1.408 72.3503 1.808C72.2543 2.352 72.1823 2.944 72.1343 3.584C72.1023 4.224 72.0863 4.872 72.0863 5.528C71.8783 5.624 71.5983 5.696 71.2463 5.744C70.8943 5.792 70.5583 5.816 70.2383 5.816C70.2223 4.84 70.0863 4.072 69.8303 3.512C69.5743 2.952 69.2223 2.56 68.7743 2.336C68.3263 2.112 67.7983 2 67.1903 2C66.3743 2 65.6783 2.176 65.1023 2.528C64.5263 2.864 64.0623 3.32 63.7103 3.896C63.3583 4.472 63.0943 5.128 62.9183 5.864C62.7583 6.6 62.6783 7.368 62.6783 8.168C62.6783 9.512 62.8783 10.728 63.2783 11.816C63.6943 12.904 64.3023 13.768 65.1023 14.408C65.9023 15.032 66.8943 15.344 68.0783 15.344C68.7343 15.344 69.4063 15.24 70.0943 15.032C70.7983 14.824 71.4783 14.528 72.1343 14.144C72.2623 14.256 72.3743 14.408 72.4703 14.6C72.5823 14.792 72.6543 14.984 72.6863 15.176C71.9343 15.784 71.0863 16.28 70.1423 16.664C69.2143 17.032 68.1263 17.216 66.8783 17.216ZM82.2282 17.216C81.9562 17.104 81.7642 16.944 81.6522 16.736C81.5402 16.512 81.4842 16.208 81.4842 15.824C81.4842 15.632 81.5002 15.408 81.5322 15.152C81.5642 14.88 81.6202 14.624 81.7002 14.384L81.7722 14.312C81.6602 14.728 81.5002 15.112 81.2922 15.464C81.0842 15.8 80.8362 16.08 80.5482 16.304C80.2282 16.592 79.8362 16.808 79.3722 16.952C78.9242 17.096 78.3882 17.168 77.7642 17.168C76.6922 17.168 75.8602 16.936 75.2682 16.472C74.6762 16.008 74.3802 15.344 74.3802 14.48C74.3802 13.872 74.5162 13.352 74.7882 12.92C75.0762 12.472 75.4602 12.096 75.9402 11.792C76.4202 11.488 76.9562 11.24 77.5482 11.048C78.1402 10.856 78.7402 10.704 79.3482 10.592C79.9722 10.48 80.5562 10.384 81.1002 10.304C81.1002 9.84 81.0842 9.456 81.0522 9.152C81.0362 8.832 80.9882 8.568 80.9082 8.36C80.8442 8.136 80.7322 7.944 80.5722 7.784C80.3962 7.56 80.1882 7.408 79.9482 7.328C79.7242 7.232 79.4842 7.184 79.2282 7.184C78.7802 7.184 78.4202 7.32 78.1482 7.592C77.8922 7.848 77.7002 8.184 77.5722 8.6C77.4442 9.016 77.3642 9.44 77.3322 9.872C76.9482 9.872 76.5882 9.856 76.2522 9.824C75.9162 9.792 75.6202 9.728 75.3642 9.632C75.3962 9.2 75.4042 8.736 75.3882 8.24C75.3722 7.744 75.3162 7.248 75.2202 6.752C75.8922 6.448 76.6602 6.208 77.5242 6.032C78.4042 5.856 79.2282 5.768 79.9962 5.768C80.9082 5.768 81.6442 5.88 82.2042 6.104C82.7642 6.312 83.1882 6.56 83.4762 6.848C83.8122 7.2 84.0682 7.68 84.2442 8.288C84.4362 8.88 84.5322 9.736 84.5322 10.856V12.944C84.5322 13.456 84.5642 13.856 84.6282 14.144C84.6922 14.416 84.8202 14.608 85.0122 14.72C85.2202 14.832 85.5322 14.896 85.9482 14.912C85.9802 15.168 85.9802 15.432 85.9482 15.704C85.9162 15.96 85.8442 16.2 85.7322 16.424C85.1562 16.44 84.5562 16.52 83.9322 16.664C83.3242 16.792 82.7562 16.976 82.2282 17.216ZM78.9642 15.176C79.2842 15.176 79.6122 15.072 79.9482 14.864C80.2842 14.64 80.5562 14.312 80.7642 13.88C80.9882 13.448 81.1002 12.896 81.1002 12.224V11.576C80.6362 11.656 80.1962 11.752 79.7802 11.864C79.3802 11.976 79.0282 12.12 78.7242 12.296C78.4362 12.456 78.2122 12.664 78.0522 12.92C77.8922 13.16 77.8122 13.464 77.8122 13.832C77.8122 14.312 77.9242 14.656 78.1482 14.864C78.3882 15.072 78.6602 15.176 78.9642 15.176ZM92.6178 12.848C92.6178 13.536 92.6898 14.072 92.8338 14.456C92.9938 14.84 93.2418 15.12 93.5778 15.296C93.9298 15.456 94.4018 15.56 94.9938 15.608C95.0738 15.8 95.1218 16.024 95.1378 16.28C95.1538 16.536 95.1618 16.8 95.1618 17.072C94.8898 17.056 94.5458 17.04 94.1298 17.024C93.7298 17.024 93.2978 17.016 92.8338 17C92.3698 17 91.9138 17 91.4658 17C90.7458 17 90.0018 17 89.2338 17C88.4658 17.016 87.8578 17.04 87.4098 17.072C87.4098 16.736 87.4178 16.456 87.4338 16.232C87.4658 15.992 87.5058 15.784 87.5538 15.608C87.9858 15.576 88.3218 15.496 88.5618 15.368C88.8018 15.24 88.9618 15.008 89.0418 14.672C89.1378 14.32 89.1858 13.832 89.1858 13.208V11.552H92.6178V12.848ZM92.6178 9.92V11.984H89.1858V9.368L92.6178 7.088C92.6178 7.488 92.5698 7.896 92.4738 8.312C92.3938 8.712 92.2898 9.192 92.1618 9.752L92.6178 9.92ZM92.0898 9.848C92.2178 9.48 92.3458 9.112 92.4738 8.744C92.6018 8.376 92.7218 8.096 92.8338 7.904C93.1858 7.344 93.6178 6.88 94.1298 6.512C94.6418 6.144 95.2178 5.96 95.8578 5.96C96.4818 5.96 97.0498 6.152 97.5618 6.536C97.5138 6.856 97.4658 7.224 97.4178 7.64C97.3858 8.04 97.3618 8.448 97.3458 8.864C97.3458 9.28 97.3538 9.664 97.3698 10.016C97.1298 10.112 96.8098 10.184 96.4098 10.232C96.0258 10.28 95.6818 10.304 95.3778 10.304C95.3618 9.664 95.2658 9.224 95.0898 8.984C94.9138 8.728 94.6658 8.6 94.3458 8.6C94.1058 8.6 93.8498 8.744 93.5778 9.032C93.3058 9.304 93.0738 9.672 92.8818 10.136C92.7058 10.584 92.6178 11.072 92.6178 11.6L92.0898 9.848ZM89.1858 11.984V9.896C89.1858 9.432 89.1458 9.072 89.0658 8.816C89.0018 8.544 88.8418 8.344 88.5858 8.216C88.3458 8.072 87.9618 7.984 87.4338 7.952C87.4338 7.712 87.4498 7.48 87.4818 7.256C87.5298 7.016 87.6098 6.792 87.7218 6.584C88.5698 6.584 89.3858 6.504 90.1698 6.344C90.9698 6.168 91.5538 5.984 91.9218 5.792C92.1458 5.872 92.3138 6.016 92.4258 6.224C92.5538 6.416 92.6178 6.704 92.6178 7.088L89.1858 11.984ZM104.008 12.848C104.008 13.536 104.08 14.072 104.224 14.456C104.384 14.84 104.632 15.12 104.968 15.296C105.32 15.456 105.792 15.56 106.384 15.608C106.464 15.8 106.512 16.024 106.528 16.28C106.544 16.536 106.552 16.8 106.552 17.072C106.28 17.056 105.936 17.04 105.52 17.024C105.12 17.024 104.688 17.016 104.224 17C103.76 17 103.304 17 102.856 17C102.136 17 101.392 17 100.624 17C99.8564 17.016 99.2484 17.04 98.8004 17.072C98.8004 16.736 98.8084 16.456 98.8244 16.232C98.8564 15.992 98.8964 15.784 98.9444 15.608C99.3764 15.576 99.7124 15.496 99.9524 15.368C100.192 15.24 100.352 15.008 100.432 14.672C100.528 14.32 100.576 13.832 100.576 13.208V11.552H104.008V12.848ZM104.008 9.92V11.984H100.576V9.368L104.008 7.088C104.008 7.488 103.96 7.896 103.864 8.312C103.784 8.712 103.68 9.192 103.552 9.752L104.008 9.92ZM103.48 9.848C103.608 9.48 103.736 9.112 103.864 8.744C103.992 8.376 104.112 8.096 104.224 7.904C104.576 7.344 105.008 6.88 105.52 6.512C106.032 6.144 106.608 5.96 107.248 5.96C107.872 5.96 108.44 6.152 108.952 6.536C108.904 6.856 108.856 7.224 108.808 7.64C108.776 8.04 108.752 8.448 108.736 8.864C108.736 9.28 108.744 9.664 108.76 10.016C108.52 10.112 108.2 10.184 107.8 10.232C107.416 10.28 107.072 10.304 106.768 10.304C106.752 9.664 106.656 9.224 106.48 8.984C106.304 8.728 106.056 8.6 105.736 8.6C105.496 8.6 105.24 8.744 104.968 9.032C104.696 9.304 104.464 9.672 104.272 10.136C104.096 10.584 104.008 11.072 104.008 11.6L103.48 9.848ZM100.576 11.984V9.896C100.576 9.432 100.536 9.072 100.456 8.816C100.392 8.544 100.232 8.344 99.9764 8.216C99.7364 8.072 99.3524 7.984 98.8244 7.952C98.8244 7.712 98.8404 7.48 98.8724 7.256C98.9204 7.016 99.0004 6.792 99.1124 6.584C99.9604 6.584 100.776 6.504 101.56 6.344C102.36 6.168 102.944 5.984 103.312 5.792C103.536 5.872 103.704 6.016 103.816 6.224C103.944 6.416 104.008 6.704 104.008 7.088L100.576 11.984ZM115.999 17.216C114.639 17.216 113.535 16.968 112.687 16.472C111.839 15.976 111.215 15.304 110.815 14.456C110.415 13.592 110.215 12.632 110.215 11.576C110.215 10.44 110.439 9.44 110.887 8.576C111.335 7.712 111.975 7.032 112.807 6.536C113.655 6.04 114.639 5.792 115.759 5.792C116.911 5.792 117.847 6.016 118.567 6.464C119.303 6.896 119.847 7.504 120.199 8.288C120.551 9.056 120.751 9.928 120.799 10.904C120.687 11.368 120.487 11.744 120.199 12.032C119.799 12.032 119.311 12.04 118.735 12.056C118.159 12.056 117.535 12.064 116.863 12.08C116.207 12.08 115.535 12.096 114.847 12.128C114.175 12.144 113.535 12.176 112.927 12.224V10.64H117.535C117.535 9.568 117.375 8.744 117.055 8.168C116.751 7.576 116.303 7.28 115.711 7.28C115.327 7.28 114.983 7.408 114.679 7.664C114.375 7.904 114.135 8.296 113.959 8.84C113.783 9.368 113.695 10.064 113.695 10.928C113.695 11.744 113.799 12.496 114.007 13.184C114.215 13.872 114.559 14.416 115.039 14.816C115.535 15.216 116.207 15.416 117.055 15.416C117.599 15.416 118.143 15.312 118.687 15.104C119.231 14.896 119.695 14.624 120.079 14.288C120.223 14.368 120.359 14.528 120.487 14.768C120.615 15.008 120.679 15.248 120.679 15.488C120.087 16.08 119.407 16.52 118.639 16.808C117.871 17.08 116.991 17.216 115.999 17.216ZM122.449 17.072C122.449 16.784 122.457 16.52 122.473 16.28C122.505 16.024 122.553 15.8 122.617 15.608C123.257 15.592 123.681 15.44 123.889 15.152C124.113 14.864 124.225 14.32 124.225 13.52V9.656C124.225 9.272 124.185 8.96 124.105 8.72C124.025 8.48 123.857 8.304 123.601 8.192C123.345 8.064 122.961 7.984 122.449 7.952C122.449 7.712 122.465 7.48 122.497 7.256C122.529 7.016 122.601 6.792 122.713 6.584C123.241 6.584 123.785 6.544 124.345 6.464C124.921 6.384 125.441 6.288 125.905 6.176C126.385 6.048 126.737 5.92 126.961 5.792C127.169 5.872 127.337 6.016 127.465 6.224C127.593 6.416 127.657 6.696 127.657 7.064V13.52C127.657 14.32 127.761 14.864 127.969 15.152C128.177 15.44 128.569 15.592 129.145 15.608C129.209 15.8 129.249 16.032 129.265 16.304C129.297 16.56 129.313 16.816 129.313 17.072C129.073 17.056 128.769 17.04 128.401 17.024C128.033 17.024 127.633 17.016 127.201 17C126.769 17 126.337 17 125.905 17C125.473 17 125.033 17 124.585 17C124.137 17.016 123.729 17.024 123.361 17.024C122.993 17.04 122.689 17.056 122.449 17.072ZM125.641 3.896C125.065 3.896 124.593 3.744 124.225 3.44C123.873 3.12 123.697 2.712 123.697 2.216C123.697 1.64 123.897 1.192 124.297 0.871999C124.697 0.551999 125.177 0.391999 125.737 0.391999C126.393 0.391999 126.897 0.551999 127.249 0.871999C127.601 1.192 127.777 1.632 127.777 2.192C127.777 2.672 127.585 3.08 127.201 3.416C126.817 3.736 126.297 3.896 125.641 3.896ZM136.118 12.848C136.118 13.536 136.19 14.072 136.334 14.456C136.494 14.84 136.742 15.12 137.078 15.296C137.43 15.456 137.902 15.56 138.494 15.608C138.574 15.8 138.622 16.024 138.638 16.28C138.654 16.536 138.662 16.8 138.662 17.072C138.39 17.056 138.046 17.04 137.63 17.024C137.23 17.024 136.798 17.016 136.334 17C135.87 17 135.414 17 134.966 17C134.246 17 133.502 17 132.734 17C131.966 17.016 131.358 17.04 130.91 17.072C130.91 16.736 130.918 16.456 130.934 16.232C130.966 15.992 131.006 15.784 131.054 15.608C131.486 15.576 131.822 15.496 132.062 15.368C132.302 15.24 132.462 15.008 132.542 14.672C132.638 14.32 132.686 13.832 132.686 13.208V11.552H136.118V12.848ZM136.118 9.92V11.984H132.686V9.368L136.118 7.088C136.118 7.488 136.07 7.896 135.974 8.312C135.894 8.712 135.79 9.192 135.662 9.752L136.118 9.92ZM135.59 9.848C135.718 9.48 135.846 9.112 135.974 8.744C136.102 8.376 136.222 8.096 136.334 7.904C136.686 7.344 137.118 6.88 137.63 6.512C138.142 6.144 138.718 5.96 139.358 5.96C139.982 5.96 140.55 6.152 141.062 6.536C141.014 6.856 140.966 7.224 140.918 7.64C140.886 8.04 140.862 8.448 140.846 8.864C140.846 9.28 140.854 9.664 140.87 10.016C140.63 10.112 140.31 10.184 139.91 10.232C139.526 10.28 139.182 10.304 138.878 10.304C138.862 9.664 138.766 9.224 138.59 8.984C138.414 8.728 138.166 8.6 137.846 8.6C137.606 8.6 137.35 8.744 137.078 9.032C136.806 9.304 136.574 9.672 136.382 10.136C136.206 10.584 136.118 11.072 136.118 11.6L135.59 9.848ZM132.686 11.984V9.896C132.686 9.432 132.646 9.072 132.566 8.816C132.502 8.544 132.342 8.344 132.086 8.216C131.846 8.072 131.462 7.984 130.934 7.952C130.934 7.712 130.95 7.48 130.982 7.256C131.03 7.016 131.11 6.792 131.222 6.584C132.07 6.584 132.886 6.504 133.67 6.344C134.47 6.168 135.054 5.984 135.422 5.792C135.646 5.872 135.814 6.016 135.926 6.224C136.054 6.416 136.118 6.704 136.118 7.088L132.686 11.984ZM150.22 17.216C149.948 17.104 149.756 16.944 149.644 16.736C149.532 16.512 149.476 16.208 149.476 15.824C149.476 15.632 149.492 15.408 149.524 15.152C149.556 14.88 149.612 14.624 149.692 14.384L149.764 14.312C149.652 14.728 149.492 15.112 149.284 15.464C149.076 15.8 148.828 16.08 148.54 16.304C148.22 16.592 147.828 16.808 147.364 16.952C146.916 17.096 146.38 17.168 145.756 17.168C144.684 17.168 143.852 16.936 143.26 16.472C142.668 16.008 142.372 15.344 142.372 14.48C142.372 13.872 142.508 13.352 142.78 12.92C143.068 12.472 143.452 12.096 143.932 11.792C144.412 11.488 144.948 11.24 145.54 11.048C146.132 10.856 146.732 10.704 147.34 10.592C147.964 10.48 148.548 10.384 149.092 10.304C149.092 9.84 149.076 9.456 149.044 9.152C149.028 8.832 148.98 8.568 148.9 8.36C148.836 8.136 148.724 7.944 148.564 7.784C148.388 7.56 148.18 7.408 147.94 7.328C147.716 7.232 147.476 7.184 147.22 7.184C146.772 7.184 146.412 7.32 146.14 7.592C145.884 7.848 145.692 8.184 145.564 8.6C145.436 9.016 145.356 9.44 145.324 9.872C144.94 9.872 144.58 9.856 144.244 9.824C143.908 9.792 143.612 9.728 143.356 9.632C143.388 9.2 143.396 8.736 143.38 8.24C143.364 7.744 143.308 7.248 143.212 6.752C143.884 6.448 144.652 6.208 145.516 6.032C146.396 5.856 147.22 5.768 147.988 5.768C148.9 5.768 149.636 5.88 150.196 6.104C150.756 6.312 151.18 6.56 151.468 6.848C151.804 7.2 152.06 7.68 152.236 8.288C152.428 8.88 152.524 9.736 152.524 10.856V12.944C152.524 13.456 152.556 13.856 152.62 14.144C152.684 14.416 152.812 14.608 153.004 14.72C153.212 14.832 153.524 14.896 153.94 14.912C153.972 15.168 153.972 15.432 153.94 15.704C153.908 15.96 153.836 16.2 153.724 16.424C153.148 16.44 152.548 16.52 151.924 16.664C151.316 16.792 150.748 16.976 150.22 17.216ZM146.956 15.176C147.276 15.176 147.604 15.072 147.94 14.864C148.276 14.64 148.548 14.312 148.756 13.88C148.98 13.448 149.092 12.896 149.092 12.224V11.576C148.628 11.656 148.188 11.752 147.772 11.864C147.372 11.976 147.02 12.12 146.716 12.296C146.428 12.456 146.204 12.664 146.044 12.92C145.884 13.16 145.804 13.464 145.804 13.832C145.804 14.312 145.916 14.656 146.14 14.864C146.38 15.072 146.652 15.176 146.956 15.176ZM159.002 13.88C159.386 14.008 159.658 14.232 159.818 14.552C159.994 14.856 160.082 15.344 160.082 16.016C160.082 16.992 159.834 17.96 159.338 18.92C158.842 19.896 158.21 20.744 157.442 21.464C157.17 21.448 156.906 21.392 156.65 21.296C156.41 21.2 156.218 21.088 156.074 20.96C157.13 19.776 157.658 18.768 157.658 17.936C157.658 17.616 157.53 17.352 157.274 17.144C157.034 16.936 156.682 16.808 156.218 16.76C156.218 16.392 156.234 16.04 156.266 15.704C156.314 15.368 156.394 15.008 156.506 14.624C157.018 14.576 157.482 14.496 157.898 14.384C158.33 14.256 158.698 14.088 159.002 13.88Z" fill="white"/>
</svg>
